<svg xmlns="http://www.w3.org/2000/svg" width="32" height="32" viewBox="0 0 32 32" role="img" aria-label="ALEK ALK logo">
  <defs>
    <radialGradient id="bg" cx="50%" cy="45%" r="60%">
      <stop offset="0" stop-color="#0d2e66"/>
      <stop offset="0.62" stop-color="#061b3c"/>
      <stop offset="1" stop-color="#020b18"/>
    </radialGradient>
    <linearGradient id="metal" x1="0" y1="0" x2="1" y2="1">
      <stop offset="0" stop-color="#ffffff"/>
      <stop offset="0.28" stop-color="#bfc9d6"/>
      <stop offset="0.6" stop-color="#f6f8fb"/>
      <stop offset="1" stop-color="#8b97a6"/>
    </linearGradient>
    <linearGradient id="blue" x1="0" y1="0" x2="1" y2="1">
      <stop offset="0" stop-color="#59d8ff"/>
      <stop offset="0.5" stop-color="#0b79ff"/>
      <stop offset="1" stop-color="#0450c7"/>
    </linearGradient>
    <filter id="glow" x="-50%" y="-50%" width="200%" height="200%">
      <feGaussianBlur stdDeviation="0.55" result="b"/>
      <feMerge><feMergeNode in="b"/><feMergeNode in="SourceGraphic"/></feMerge>
    </filter>
  </defs>

  <circle cx="16" cy="16" r="15.2" fill="#dbe5f1"/>
  <circle cx="16" cy="16" r="14.3" fill="#12203b" stroke="#6fbfff" stroke-width="0.7"/>
  <circle cx="16" cy="16" r="13.4" fill="url(#bg)" stroke="#138cff" stroke-width="0.55"/>
  <circle cx="16" cy="16" r="11.3" fill="none" stroke="#1c8cff" stroke-opacity="0.75" stroke-width="0.35"/>
  <path d="M6.3 15.8c3.1-4.9 7.2-7.4 9.9-7.4 3.9 0 7.5 2.6 9.6 7.5-2.3 4.2-5.8 6.8-9.8 6.8-4 0-7.5-2.7-9.7-6.9z" fill="none" stroke="#1f7de8" stroke-opacity="0.42" stroke-width="0.45"/>
  <path d="M8 11.6c2.6 1.6 5.3 2.4 8 2.4s5.4-.8 8-2.4M8 20.2c2.6-1.6 5.3-2.4 8-2.4s5.4.8 8 2.4" fill="none" stroke="#42b4ff" stroke-opacity="0.42" stroke-width="0.35"/>

  <g filter="url(#glow)">
    <path d="M15.95 5.3 7.45 23.7h4.15l1.55-3.65h5.9l1.55 3.65h4.15L16.45 5.3h-.5zm.25 5.9 1.9 4.7h-3.95l2.05-4.7z" fill="url(#metal)" stroke="#3aa7ff" stroke-width="0.35"/>
    <path d="M7.8 18.7c4.3 1.6 8.6.85 12.3-1.2 2.15-1.2 4.05-2.7 5.9-4.45-1.1 2.35-3.25 4.45-6 5.95-3.85 2.1-8.25 2.75-12.2-.3z" fill="url(#metal)" stroke="#168dff" stroke-width="0.35"/>
  </g>

  <g fill="url(#blue)">
    <path d="M4.2 15.7l.9-1.8.9 1.8-.9 1.8z"/>
    <path d="M26 15.7l.9-1.8.9 1.8-.9 1.8z"/>
  </g>

  <g fill="#63c8ff" opacity="0.9">
    <circle cx="10.1" cy="9.2" r="0.42"/>
    <circle cx="21.9" cy="9.1" r="0.42"/>
    <circle cx="9.1" cy="21" r="0.38"/>
    <circle cx="22.9" cy="21" r="0.38"/>
  </g>
</svg>
